<svg xmlns="http://www.w3.org/2000/svg" width="798" height="75" viewBox="0 0 798 75">
  <metadata><?xpacket begin="﻿" id="W5M0MpCehiHzreSzNTczkc9d"?>
<x:xmpmeta xmlns:x="adobe:ns:meta/" x:xmptk="Adobe XMP Core 5.6-c138 79.159824, 2016/09/14-01:09:01        ">
   <rdf:RDF xmlns:rdf="http://www.w3.org/1999/02/22-rdf-syntax-ns#">
      <rdf:Description rdf:about=""
            xmlns:xmp="http://ns.adobe.com/xap/1.0/">
         <xmp:CreatorTool>Adobe Photoshop CC 2017 (Macintosh)</xmp:CreatorTool>
      </rdf:Description>
   </rdf:RDF>
</x:xmpmeta>
                                                                                                    
                                                                                                    
                                                                                                    
                                                                                                    
                                                                                                    
                                                                                                    
                                                                                                    
                                                                                                    
                                                                                                    
                                                                                                    
                                                                                                    
                                                                                                    
                                                                                                    
                                                                                                    
                                                                                                    
                                                                                                    
                                                                                                    
                                                                                                    
                                                                                                    
                                                                                                    
                           
<?xpacket end="w"?></metadata>
<defs>
    <style>
      .cls-1 {
        fill: #333;
      }

      .cls-1, .cls-2, .cls-3, .cls-4 {
        fill-rule: evenodd;
      }

      .cls-2 {
        fill: #ff3;
      }

      .cls-3 {
        fill: #09f;
      }

      .cls-4 {
        fill: #f33;
      }
    </style>
  </defs>
  <path id="WMCN_9I_7_copy_2" data-name="WMCN 9I°7 copy 2" class="cls-1" d="M24.061,73.555h25.5l16.9-47.8h0.2l16.9,47.8h25.5l23.5-72.4h-21.7l-15.4,53.2h-0.2l-18.4-53.2h-20.6l-18.4,53.2h-0.2l-15.4-53.2H0.559ZM594.626,30.31a9.521,9.521,0,0,0,5.859-1.953,6.119,6.119,0,0,0,2.7-4.836,5.856,5.856,0,0,0-2.7-5.161,10.749,10.749,0,0,0-6.138-1.814H566.54a10.59,10.59,0,0,0-6.045,1.814,5.853,5.853,0,0,0-2.7,5.162,6.145,6.145,0,0,0,2.651,4.836,9.32,9.32,0,0,0,5.812,1.953h28.365Zm-13.3,16.275q-10.137,0-16.228-.186a96.41,96.41,0,0,1-10.091-.744,30.587,30.587,0,0,1-6.556-1.535,17.971,17.971,0,0,1-4.7-2.65q-2.046-1.674-3.3-6.231A43.018,43.018,0,0,1,539.2,23.986a47.363,47.363,0,0,1,1.023-11.114,13.241,13.241,0,0,1,3.534-6.464A18.612,18.612,0,0,1,548.5,3.2a24.269,24.269,0,0,1,6.324-1.767A81.457,81.457,0,0,1,564.68.643q6.045-.185,16.182-0.186,10.044,0,15.81.279a70.577,70.577,0,0,1,9.44.977A23.835,23.835,0,0,1,612.3,3.665a36.559,36.559,0,0,1,5.673,3.674,12.3,12.3,0,0,1,3.906,6.231,28.043,28.043,0,0,1,1.3,8.37V50.677A29.15,29.15,0,0,1,621.364,61.7a16.22,16.22,0,0,1-5.3,7.021,22,22,0,0,1-8.51,3.72,55.5,55.5,0,0,1-11.9,1.116H541.337V56.722h47.8q4.556,0,6.836-.233a8.354,8.354,0,0,0,3.72-1.162,5.277,5.277,0,0,0,2.092-2.976,19.927,19.927,0,0,0,.651-5.766H581.327Z"/>
  <path id="WMCN_9I_7_copy_3" data-name="WMCN 9I°7 copy 3" class="cls-2" d="M140.76,73.555h21.6v-52h0.2l29.1,52h16.6l29.1-52h0.2v52h21.6V1.15h-34.1l-25.1,46.6-25.1-46.6h-34.1v72.4Zm494.93,0h22.2V1.15h-22.2v72.4Z"/>
  <path id="WMCN_9I_7_copy_4" data-name="WMCN 9I°7 copy 4" class="cls-3" d="M272.56,48.153c0,21.2,11.9,26.2,31.9,26.2h35.8c22.3,0,26.7-9.6,26.7-21.8v-6.8h-22.2c0,9-3,10-13,10h-23.7c-10.5,0-12.7-4-12.7-14.5v-7.8c0-9,2.2-14.5,13.9-14.5h24.2c6.6,0,10.4,1.5,10.4,6.7v2h22.2c0.2-20.5-3.9-27.3-35.5-27.3h-26.1c-20,0-31.9,5-31.9,26.2v21.6Zm407.229-31.4a6.8,6.8,0,1,1,6.8,6.8A6.745,6.745,0,0,1,679.789,16.751Zm-9.6,0A16.4,16.4,0,1,0,686.59.35,16.347,16.347,0,0,0,670.189,16.751Z"/>
  <path id="WMCN_9I_7_copy_5" data-name="WMCN 9I°7 copy 5" class="cls-4" d="M380.359,73.555h22.2v-52.6h0.2l41.7,52.6h34.4V1.15h-22.2v52.6h-0.2l-41.7-52.6h-34.4v72.4Zm334.13-54.4h56l-44.9,54.4h25.8l46.1-56.2V1.15h-83v18Z"/>
</svg>
